<?xml version="1.0" encoding="utf-8"?>
<!-- Generator: Adobe Illustrator 24.0.0, SVG Export Plug-In . SVG Version: 6.00 Build 0)  -->
<svg version="1.1" id="icons" xmlns="http://www.w3.org/2000/svg" xmlns:xlink="http://www.w3.org/1999/xlink" x="0px" y="0px"
	 viewBox="0 0 841.9 595.3" style="enable-background:new 0 0 841.9 595.3;" xml:space="preserve">
<style type="text/css">
	.st0{clip-path:url(#SVGID_2_);}
	.st1{fill:#00BFF3;}
</style>
<g>
	<defs>
		<rect id="SVGID_1_" width="841.9" height="595.3"/>
	</defs>
	<clipPath id="SVGID_2_">
		<use xlink:href="#SVGID_1_"  style="overflow:visible;"/>
	</clipPath>
	<g id="Layer_2_1_" class="st0">
		<g>
			<g>
				<g>
					<g>
						<g>
							<path class="st1" d="M559.1,468H282.8l-23.2-24.5v-18.1h128l10.1,10.6h46.4l10.1-10.6h128v18.1L559.1,468z M286.8,457.3H555
								l17.1-18.1V436H458.3l-10.1,10.6h-54.4L383.6,436H269.7v3.2L286.8,457.3z"/>
						</g>
						<g>
							<path class="st1" d="M294.9,425.4h-10.1V265.7c0-11.7,9.1-21.3,20.2-21.3V255c-6,0-10.1,4.3-10.1,10.6V425.4z"/>
						</g>
						<g>
							<path class="st1" d="M557.1,425.4H547V265.7c0-6.4-4-10.6-10.1-10.6v-10.6c11.1,0,20.2,9.6,20.2,21.3L557.1,425.4
								L557.1,425.4z"/>
						</g>
					</g>
				</g>
				<g>
					<g>
						<path class="st1" d="M375.6,356.2c-17.1,0-30.2-17-30.2-40.5c0-16,4-35.1,30.2-35.1s30.2,19.2,30.2,35.1
							C405.8,339.2,392.7,356.2,375.6,356.2z M375.6,292.3c-15.1,0-20.2,6.4-20.2,24.5c0,14.9,7.1,29.8,20.2,29.8
							s20.2-14.9,20.2-29.8C395.7,298.7,390.7,292.3,375.6,292.3z"/>
					</g>
					<g>
						<path class="st1" d="M415.9,398.8h-80.7c-8.1,0-15.1-9.6-15.1-21.3v-13.8l38.3-22.4l5,9.6l-33.3,20.2v7.5c0,6.4,4,10.6,5,10.6
							h80.7c1,0,5-4.3,5-10.6v-7.5l-33.3-20.2l5-9.6l38.3,22.4v13.8C431,389.2,424,398.8,415.9,398.8z"/>
					</g>
				</g>
				<g>
					<g>
						<path class="st1" d="M441.1,308.3c-1,0-1,0-2-1.1c-2-1.1-3-3.2-3-4.3V255H330.2c-9.1,0-15.1-6.4-15.1-16v-95.8
							c0-9.6,6-16,15.1-16h181.5c9.1,0,15.1,6.4,15.1,16V239c0,9.6-6,16-15.1,16h-18.1l-49.4,52.2
							C444.1,307.2,442.1,308.3,441.1,308.3z M330.2,138c-3,0-5,2.1-5,5.3v95.8c0,3.2,2,5.3,5,5.3h110.9c3,0,5,2.1,5,5.3v40.5
							l41.3-43.6c1-1.1,2-1.1,4-1.1h20.2c3,0,5-2.1,5-5.3v-95.8c0-3.2-2-5.3-5-5.3L330.2,138L330.2,138z"/>
					</g>
					<g>
						<rect x="415.9" y="185.9" class="st1" width="10.1" height="10.6"/>
					</g>
					<g>
						<rect x="436.1" y="185.9" class="st1" width="10.1" height="10.6"/>
					</g>
					<g>
						<rect x="395.7" y="185.9" class="st1" width="10.1" height="10.6"/>
					</g>
				</g>
				<g>
					<polygon class="st1" points="521.8,398.8 446.2,398.8 446.2,388.1 511.7,388.1 511.7,313.6 521.8,313.6 					"/>
				</g>
				<g>
					<rect x="456.2" y="324.3" class="st1" width="45.4" height="10.6"/>
				</g>
				<g>
					<rect x="456.2" y="345.5" class="st1" width="45.4" height="10.6"/>
				</g>
				<g>
					<rect x="456.2" y="366.8" class="st1" width="45.4" height="10.6"/>
				</g>
			</g>
		</g>
	</g>
</g>
<g>
	<path class="st1" d="M105.5,485.3L95,495.9H63.3V522h40.5l-10.6,10.6H59.8L49.1,522v-25.9l10.7-10.8H105.5z"/>
	<path class="st1" d="M169.4,521.8l-10.7,10.7h-39.3l-10.7-10.7v-25.7l10.7-10.7h39.3l10.7,10.7V521.8z M155.2,522v-26.1h-32.2V522
		H155.2z"/>
	<path class="st1" d="M239.6,521.8l-10.7,10.7h-39.3l-10.7-10.7v-25.7l10.7-10.7h39.3l10.7,10.7V521.8z M225.3,522v-26.1h-32.2V522
		H225.3z"/>
	<path class="st1" d="M309.5,540.7l-14.2-8.2v-11.6l-4.3-4.2h-27.2v15.8h-14.2v-47.2h49.3l10.7,14.6l-8.2,11l8.2,8.2V540.7z
		 M294.8,500.8l-3.7-4.9h-27.4V506H291L294.8,500.8z"/>
	<path class="st1" d="M379.9,509l-13.4,23.5h-47.3v-47.2h47.3L379.9,509z M364.4,509l-7.4-13.1h-23.6V522h23.6L364.4,509z"/>
	<path class="st1" d="M403.2,532.5l-14.2-0.1v-47.1l14.2-8.2V532.5z"/>
	<path class="st1" d="M472.1,532.5h-10.8L427.9,505v27.5l-14.2-0.1v-47.1h10l34.3,28.2v-28.1l14.2-8.3V532.5z"/>
	<path class="st1" d="M539.4,540.7l-14.2-8.1V519h-28.7v13.5l-14.2-0.1v-36.6l10.7-10.6h35.8l10.7,10.6V540.7z M525.2,508.6v-12.7
		h-28.7v12.7H525.2z"/>
	<path class="st1" d="M601.2,485.3l-10.5,10.6h-14v44.8l-14.2-8.2v-36.6h-14L538,485.3H601.2z"/>
	<path class="st1" d="M660.5,521.8l-10.7,10.7h-39.3l-10.7-10.7v-25.7l10.7-10.7h39.3l10.7,10.7V521.8z M646.3,522v-26.1H614V522
		H646.3z"/>
	<path class="st1" d="M730.4,540.7l-14.2-8.2v-11.6l-4.3-4.2h-27.2v15.8h-14.2v-47.2h49.3l10.7,14.6l-8.2,11l8.2,8.2V540.7z
		 M715.8,500.8l-3.7-4.9h-27.4V506H712L715.8,500.8z"/>
	<path class="st1" d="M804,518l-10.7,14.5h-54.7L749,522h35.9l3.4-3.9l-3.4-4.3h-36l-10.4-14l10.7-14.5h54.7l-10.6,10.6h-35.8
		l-3.4,4l3.4,4.3h36L804,518z"/>
</g>
</svg>
