<?xml version="1.0" encoding="utf-8"?>
<!-- Generator: Adobe Illustrator 24.0.0, SVG Export Plug-In . SVG Version: 6.00 Build 0)  -->
<svg version="1.1" id="Layer_1" xmlns="http://www.w3.org/2000/svg" xmlns:xlink="http://www.w3.org/1999/xlink" x="0px" y="0px"
	 viewBox="0 0 345 346" style="enable-background:new 0 0 345 346;" xml:space="preserve">
<style type="text/css">
	.st0{fill:#00BFF3;}
</style>
<g>
	<g>
		<path class="st0" d="M173.4,30.6c-36.5,0-66.3,26.8-66.3,59.7s29.7,59.7,66.3,59.7c36.5,0,66.3-26.8,66.3-59.7
			S210,30.6,173.4,30.6z M173.4,141.8c-31.5,0-57.2-23.1-57.2-51.5c0-28.4,25.6-51.5,57.2-51.5c31.5,0,57.2,23.1,57.2,51.5
			S204.9,141.8,173.4,141.8z"/>
		<path class="st0" d="M173.4,46.1c-2.5,0-4.6,1.8-4.6,4.1c0,2.3,2,4.1,4.6,4.1c22,0,39.9,16.1,39.9,36c0,2.3,2,4.1,4.6,4.1
			c2.5,0,4.6-1.8,4.6-4.1C222.4,65.9,200.4,46.1,173.4,46.1z"/>
		<path class="st0" d="M257.5,90.3c0-41.8-37.7-75.8-84.1-75.8s-84.1,34-84.1,75.8c0,24.4,13,47.1,34.8,61.4l-26.8,61.8
			c-0.6,1.3-0.4,2.8,0.6,3.9c0.9,1.1,2.4,1.8,3.9,1.7l30.4-1.5l21.2,19.7c0.9,0.8,2,1.2,3.3,1.2c0.3,0,0.6,0,0.9-0.1
			c1.5-0.3,2.8-1.2,3.3-2.5l12.4-28.6l12.4,28.6c0.6,1.3,1.8,2.3,3.3,2.5c0.3,0.1,0.6,0.1,0.9,0.1c1.2,0,2.4-0.4,3.3-1.2l21.2-19.7
			l30.4,1.5c0.1,0,0.2,0,0.3,0c2.5,0,4.6-1.8,4.6-4.1c0-0.8-0.3-1.6-0.7-2.2l-26.5-61.1C244.5,137.4,257.5,114.7,257.5,90.3z
			 M155.1,227l-17.7-16.4c-0.9-0.8-2-1.2-3.3-1.2c-0.1,0-0.2,0-0.3,0l-25.4,1.3l23.5-54.3c0.1,0,0.2,0.1,0.3,0.1
			c1,0.5,2.1,1,3.1,1.5c0.8,0.4,1.7,0.8,2.5,1.2c0.4,0.2,0.8,0.3,1.1,0.4c7,2.9,14.4,4.8,22.1,5.9c0,0,0.1,0,0.1,0
			c1.7,0.2,3.3,0.4,5,0.5c0.4,0,0.9,0.1,1.3,0.1c1.3,0.1,2.7,0.1,4,0.1c0.6,0,1.2,0.1,1.8,0.1c0.2,0,0.4,0,0.6,0
			c2.3,0,4.7-0.1,7-0.3c0.2,0,0.4,0,0.5,0c0,0,0.1,0,0.1,0l-12.5,28.8c0,0,0,0,0,0L155.1,227z M213,209.3c-1.3,0-2.6,0.4-3.5,1.2
			L191.7,227l-13.4-31l13.8-31.8c1.5-0.3,3.1-0.7,4.6-1.1c0.4-0.1,0.7-0.2,1.1-0.3c2.3-0.6,4.6-1.4,6.9-2.2c0.6-0.2,1.2-0.5,1.9-0.7
			c1.7-0.6,3.3-1.3,4.9-2.1c0.7-0.3,1.4-0.6,2.1-1c0.5-0.2,0.9-0.4,1.4-0.7l23.5,54.3L213,209.3z M214.6,146.7
			c-8.2,4.9-17.2,8.2-26.8,9.9c-7.4,1.3-14.8,1.6-22,0.9c-12-1.1-23.5-4.8-33.6-10.8c-21.1-12.6-33.8-33.7-33.8-56.4
			c0-37.3,33.6-67.6,75-67.6s75,30.3,75,67.6C248.4,113.1,235.8,134.2,214.6,146.7z"/>
	</g>
</g>
<g>
	<path class="st0" d="M62.8,269.9l-12.5,16.9H17v23.9l-14.2-8.2v-47.2H52L62.8,269.9z M48.2,270.9l-3.7-4.9H17v10.2h27.4L48.2,270.9
		z"/>
	<path class="st0" d="M129.3,310.7l-14.2-8.2V291l-4.3-4.2H83.6v15.8H69.3v-47.2h49.3l10.7,14.6l-8.2,11l8.2,8.2V310.7z
		 M114.7,270.8l-3.7-4.9H83.6v10.2h27.3L114.7,270.8z"/>
	<path class="st0" d="M153.3,302.6l-14.2-0.1v-47.1l14.2-8.2V302.6z"/>
	<path class="st0" d="M217.8,292l-10.5,10.6h-46l31.6-36.6h-21.1l-10.5-10.6h56.4L186.2,292H217.8z"/>
	<path class="st0" d="M282.1,255.4l-10.5,10.6H240v8.3h35.3l-9.6,9.6H240v8.2h40.5l-10.6,10.6h-44.2v-47.2H282.1z"/>
	<path class="st0" d="M344.8,288.1l-10.7,14.5h-54.7l10.5-10.6h35.9l3.4-3.9l-3.4-4.3h-36l-10.4-14l10.7-14.5h54.7l-10.6,10.6h-35.8
		l-3.4,4l3.4,4.3h36L344.8,288.1z"/>
</g>
<g>
</g>
<g>
</g>
<g>
</g>
<g>
</g>
<g>
</g>
<g>
</g>
<g>
</g>
<g>
</g>
<g>
</g>
<g>
</g>
<g>
</g>
<g>
</g>
<g>
</g>
<g>
</g>
<g>
</g>
</svg>
