<?xml version="1.0" encoding="utf-8"?>
<!-- Generator: Adobe Illustrator 24.0.0, SVG Export Plug-In . SVG Version: 6.00 Build 0)  -->
<svg version="1.1" id="Layer_1" xmlns="http://www.w3.org/2000/svg" xmlns:xlink="http://www.w3.org/1999/xlink" x="0px" y="0px"
	 viewBox="0 0 442 425" style="enable-background:new 0 0 442 425;" xml:space="preserve">
<style type="text/css">
	.st0{fill:#00BFF3;}
</style>
<g>
	<path class="st0" d="M317.4,121.5c-2.3,1.2-3.2,4-2,6.3c9.4,18,14.4,38.3,14.4,58.7c0,33.8-13.2,65.6-37.1,89.5
		c-23.9,23.9-55.7,37.1-89.5,37.1s-65.6-13.2-89.5-37.1s-37.1-55.7-37.1-89.5s13.2-65.6,37.1-89.5s55.7-37.1,89.5-37.1
		c20.5,0,40.8,5,58.8,14.4c2.3,1.2,5.1,0.3,6.3-2c1.2-2.3,0.3-5.1-2-6.3c-19.3-10.1-41.1-15.5-63.1-15.5
		c-36.3,0-70.4,14.1-96.1,39.8s-39.7,60-39.7,96.3s14.1,70.4,39.8,96.1s59.8,39.8,96.1,39.8s70.4-14.1,96.1-39.8
		s39.8-59.8,39.8-96.1c0-22-5.4-43.8-15.5-63.1C322.6,121.2,319.7,120.3,317.4,121.5z"/>
	<path class="st0" d="M263.5,102.7c1.4-2.2,0.8-5.1-1.4-6.5c-17.5-11.4-37.8-17.4-58.8-17.4c-59.4,0-107.8,48.4-107.8,107.8
		s48.4,107.8,107.8,107.8S311.1,246,311.1,186.6c0-21-6-41.3-17.4-58.8c-1.4-2.2-4.3-2.8-6.5-1.4c-2.2,1.4-2.8,4.3-1.4,6.5
		c10.4,16,15.9,34.5,15.9,53.7c0,54.3-44.2,98.4-98.4,98.4s-98.4-44.2-98.4-98.4s44.2-98.4,98.4-98.4c19.2,0,37.7,5.5,53.7,15.9
		C259.2,105.5,262.1,104.8,263.5,102.7z"/>
	<path class="st0" d="M247.1,125.4c1.4-2.2,0.7-5.1-1.5-6.5c-12.6-7.9-27.3-12.1-42.3-12.1c-43.9,0-79.7,35.7-79.7,79.7
		s35.7,79.7,79.7,79.7s79.7-35.7,79.7-79.7c0-15-4.2-29.6-12.1-42.3c-1.4-2.2-4.3-2.9-6.5-1.5c-2.2,1.4-2.9,4.3-1.5,6.5
		c7,11.2,10.7,24,10.7,37.3c0,38.8-31.5,70.3-70.3,70.3S133,225.3,133,186.5s31.5-70.3,70.3-70.3c13.2,0,26.1,3.7,37.3,10.7
		C242.8,128.3,245.7,127.6,247.1,125.4z"/>
	<path class="st0" d="M228,146.4c1.1-2.3,0.2-5.1-2.2-6.3c-7-3.4-14.6-5.2-22.5-5.2c-28.4,0-51.6,23.1-51.6,51.6
		s23.1,51.6,51.6,51.6s51.6-23.1,51.6-51.6c0-7.9-1.7-15.5-5.2-22.5c-1.1-2.3-3.9-3.3-6.3-2.2c-2.3,1.1-3.3,3.9-2.2,6.3
		c2.8,5.8,4.2,12,4.2,18.4c0,23.3-18.9,42.2-42.2,42.2S161,209.8,161,186.5s18.9-42.2,42.2-42.2c6.5,0,12.7,1.4,18.4,4.2
		C224.1,149.7,226.9,148.8,228,146.4z"/>
	<path class="st0" d="M200.4,172.8c2.5-0.5,4.1-3,3.6-5.6c-0.5-2.5-3-4.1-5.6-3.6c-10.7,2.3-18.5,11.9-18.5,22.9
		c0,12.9,10.5,23.4,23.4,23.4c11.1,0,20.7-7.9,23-18.7c0.5-2.5-1.1-5-3.7-5.5c-2.5-0.5-5,1.1-5.5,3.7c-1.3,6.5-7.1,11.2-13.8,11.2
		c-7.8,0-14.1-6.3-14.1-14.1C189.3,180,194,174.2,200.4,172.8z"/>
	<path class="st0" d="M367,53.5c-0.7-1.8-2.4-2.9-4.3-2.9h-23.4V27.2c0-1.9-1.1-3.6-2.9-4.3c-1.8-0.7-3.8-0.3-5.1,1l-58.6,58.6
		c-0.9,0.9-1.4,2.1-1.4,3.3V112L200,183.3c-1.8,1.8-1.8,4.8,0,6.6c0.9,0.9,2.1,1.4,3.3,1.4s2.4-0.5,3.3-1.4l71.3-71.3h26.2
		c1.2,0,2.4-0.5,3.3-1.4L366,58.6C367.4,57.3,367.8,55.3,367,53.5z M302.2,109.2h-14.9l36.5-36.5c1.8-1.8,1.8-4.8,0-6.6
		c-1.8-1.8-4.8-1.8-6.6,0l-36.5,36.5V87.7l49.2-49.2v16.8c0,2.6,2.1,4.7,4.7,4.7h16.8L302.2,109.2z"/>
</g>
<g>
	<path class="st0" d="M137.9,395.7l-14.2-8.2v-11.6l-4.3-4.2H92.1v15.8H77.9v-47.2h49.3l10.7,14.6l-8.2,11l8.2,8.2V395.7z
		 M123.2,355.8l-3.7-4.9H92.1V361h27.3L123.2,355.8z"/>
	<path class="st0" d="M203.2,376.8l-10.7,10.7h-35.8L146,376.8v-36.5l14.2,0.1v36.6h28.7v-36.6l14.2-8.2V376.8z"/>
	<path class="st0" d="M268,376.9l-10.6,10.6h-44.2v-47.1l14.2-8.2v44.8H268z"/>
	<path class="st0" d="M328.4,340.3l-10.5,10.6h-31.7v8.3h35.3l-9.6,9.6h-25.7v8.2h40.5l-10.6,10.6H272v-47.2H328.4z"/>
	<path class="st0" d="M391.1,373l-10.7,14.5h-54.7l10.5-10.6H372l3.4-3.9l-3.4-4.3h-36l-10.4-14l10.7-14.5h54.7l-10.6,10.6h-35.8
		l-3.4,4l3.4,4.3h36L391.1,373z"/>
</g>
</svg>
