<?xml version="1.0" encoding="utf-8"?>
<!-- Generator: Adobe Illustrator 24.0.0, SVG Export Plug-In . SVG Version: 6.00 Build 0)  -->
<svg version="1.1" id="icons" xmlns="http://www.w3.org/2000/svg" xmlns:xlink="http://www.w3.org/1999/xlink" x="0px" y="0px"
	 viewBox="0 0 728.9 595.3" style="enable-background:new 0 0 728.9 595.3;" xml:space="preserve">
<style type="text/css">
	.st0{fill:#00BFF3;}
	.st1{fill:none;}
	.st2{fill:#15BEF0;}
</style>
<g>
	<polyline class="st0" points="277,444.1 277,396.2 287.3,396.2 287.3,444.1 	"/>
	<polyline class="st0" points="328.6,444.1 328.6,396.2 338.9,396.2 338.9,444.1 	"/>
	<g>
		<path class="st0" d="M344,401.5h-72.2c-6.2,0-10.3-4.3-10.3-10.6v-21.3h10.3v21.3H344v-21.3h10.3v21.3
			C354.4,397.3,350.2,401.5,344,401.5z"/>
	</g>
	<g>
		<path class="st0" d="M307.9,380.2c-74.3,0-134.1-62.8-134.1-138.4s59.8-138.4,134.1-138.4S442,166.2,442,241.8
			S382.2,380.2,307.9,380.2z M307.9,114c-68.1,0-123.8,57.5-123.8,127.8s55.7,127.8,123.8,127.8s123.8-57.5,123.8-127.8
			S376,114,307.9,114z"/>
	</g>
	<g>
		<g>
			<path class="st0" d="M307.9,252.5c-17.5,0-30.9-17-30.9-40.5c0-16,3.1-35.1,30.9-35.1s30.9,19.2,30.9,35.1
				C338.9,235.4,325.5,252.5,307.9,252.5z M307.9,188.6c-15.5,0-20.6,6.4-20.6,24.5c0,14.9,7.2,29.8,20.6,29.8s20.6-14.9,20.6-29.8
				C328.6,195,323.4,188.6,307.9,188.6z"/>
		</g>
		<g>
			<path class="st0" d="M349.2,295h-82.5c-8.3,0-15.5-9.6-15.5-21.3v-13.8l39.2-22.4l5.2,9.6l-34,20.2v7.5c0,6.4,3.1,10.6,5.2,10.6
				h82.5c2.1,0,5.2-4.3,5.2-10.6v-7.5l-34-20.2l5.2-9.6l39.2,22.4v13.8C364.7,285.5,357.5,295,349.2,295z"/>
		</g>
	</g>
	<polyline class="st0" points="302.8,444.1 302.8,412.2 313.1,412.2 313.1,444.1 	"/>
	<g>
		<path class="st0" d="M307.9,358.9c-62.9,0-113.5-52.2-113.5-117.1S245,124.7,307.9,124.7s113.5,52.2,113.5,117.1
			S370.9,358.9,307.9,358.9z M307.9,135.3c-56.7,0-103.1,47.9-103.1,106.5s46.4,106.5,103.1,106.5S411,300.4,411,241.8
			S364.7,135.3,307.9,135.3z"/>
	</g>
	<g>
		<path class="st0" d="M230.6,241.8h-10.3c0-50,39.2-90.5,87.7-90.5V162C264.6,162,230.6,198.2,230.6,241.8z"/>
	</g>
</g>
<rect x="-113" class="st1" width="841.9" height="595.3"/>
<g>
	<path class="st2" d="M135.9,549.5l-21.4-12.1V517H71.4v20.3l-21.4-0.1v-54.8l16.1-15.8h53.6l16.1,15.8V549.5z M114.5,501.4v-19.1
		H71.4v19.1H114.5z"/>
	<path class="st2" d="M243.3,515.6l-16.1,21.7h-74.9v-70.8h74.9l16.1,21.7l-10.1,13.7L243.3,515.6z M219.9,488.3l-5.2-5.9h-41v12.5
		h41L219.9,488.3z M219.9,515.6l-5.2-6.4h-41v12.2h41L219.9,515.6z"/>
	<path class="st2" d="M349.1,521.2L333,537.3h-58.9L258,521.2v-38.6l16.1-16.1H333l16.1,16.1V521.2z M327.8,521.4v-39.1h-48.4v39.1
		H327.8z"/>
	<path class="st2" d="M450.6,521.2l-16.1,16.1h-53.6l-16.1-16.1v-54.7l21.4,0.1v54.8h43.1v-54.9l21.4-12.3V521.2z"/>
	<path class="st2" d="M558.4,466.5l-15.7,15.8h-21v67.2l-21.4-12.2v-55h-21l-15.7-15.8H558.4z"/>
</g>
</svg>
